<mxfile host="app.diagrams.net" agent="Mozilla/5.0 (Windows NT 10.0; Win64; x64; rv:139.0) Gecko/20100101 Firefox/139.0" version="27.1.6">
  <diagram name="Página-1" id="t-kVME8dePpas6_ynyzM">
    <mxGraphModel dx="542" dy="333" grid="1" gridSize="10" guides="1" tooltips="1" connect="1" arrows="1" fold="1" page="1" pageScale="1" pageWidth="1654" pageHeight="1169" math="0" shadow="0">
      <root>
        <mxCell id="0" />
        <mxCell id="1" parent="0" />
        <mxCell id="sBuC2_Wg-XsfhJQgAVqZ-1" value="Gestor de tareas" style="text;html=1;align=center;verticalAlign=middle;resizable=0;points=[];autosize=1;strokeColor=none;fillColor=none;" vertex="1" parent="1">
          <mxGeometry x="20" y="10" width="110" height="30" as="geometry" />
        </mxCell>
        <mxCell id="sBuC2_Wg-XsfhJQgAVqZ-2" value="&lt;div align=&quot;left&quot;&gt;- User&lt;/div&gt;&lt;div align=&quot;left&quot;&gt;- Comment&lt;/div&gt;&lt;div align=&quot;left&quot;&gt;- Task&lt;/div&gt;&lt;div align=&quot;left&quot;&gt;- Project&lt;/div&gt;" style="text;html=1;align=left;verticalAlign=middle;resizable=0;points=[];autosize=1;strokeColor=none;fillColor=none;" vertex="1" parent="1">
          <mxGeometry x="40" y="40" width="80" height="70" as="geometry" />
        </mxCell>
        <mxCell id="sBuC2_Wg-XsfhJQgAVqZ-3" value="@OneToMany / @ManyToOne --&amp;gt; el lado &quot;Many&quot; es el owner" style="text;html=1;align=center;verticalAlign=middle;resizable=0;points=[];autosize=1;strokeColor=none;fillColor=none;" vertex="1" parent="1">
          <mxGeometry x="365" width="350" height="30" as="geometry" />
        </mxCell>
        <mxCell id="sBuC2_Wg-XsfhJQgAVqZ-4" value="@OneToOne --&amp;gt; la entidad &quot;hija&quot; es el owner" style="text;html=1;align=center;verticalAlign=middle;resizable=0;points=[];autosize=1;strokeColor=none;fillColor=none;" vertex="1" parent="1">
          <mxGeometry x="455" y="30" width="260" height="30" as="geometry" />
        </mxCell>
        <mxCell id="sBuC2_Wg-XsfhJQgAVqZ-5" value="&lt;div&gt;@ManyToMany --&amp;gt; la entidad más importante&lt;/div&gt;" style="text;html=1;align=center;verticalAlign=middle;resizable=0;points=[];autosize=1;strokeColor=none;fillColor=none;" vertex="1" parent="1">
          <mxGeometry x="450" y="60" width="270" height="30" as="geometry" />
        </mxCell>
        <mxCell id="sBuC2_Wg-XsfhJQgAVqZ-12" style="edgeStyle=orthogonalEdgeStyle;rounded=0;orthogonalLoop=1;jettySize=auto;html=1;entryX=0;entryY=0.5;entryDx=0;entryDy=0;" edge="1" parent="1" source="sBuC2_Wg-XsfhJQgAVqZ-6" target="sBuC2_Wg-XsfhJQgAVqZ-9">
          <mxGeometry relative="1" as="geometry" />
        </mxCell>
        <mxCell id="sBuC2_Wg-XsfhJQgAVqZ-18" style="edgeStyle=orthogonalEdgeStyle;rounded=0;orthogonalLoop=1;jettySize=auto;html=1;entryX=0;entryY=0.5;entryDx=0;entryDy=0;" edge="1" parent="1" source="sBuC2_Wg-XsfhJQgAVqZ-6" target="sBuC2_Wg-XsfhJQgAVqZ-7">
          <mxGeometry relative="1" as="geometry">
            <mxPoint x="150" y="310" as="targetPoint" />
            <Array as="points">
              <mxPoint x="140" y="270" />
              <mxPoint x="225" y="270" />
              <mxPoint x="225" y="320" />
            </Array>
          </mxGeometry>
        </mxCell>
        <mxCell id="sBuC2_Wg-XsfhJQgAVqZ-6" value="User" style="rounded=0;whiteSpace=wrap;html=1;" vertex="1" parent="1">
          <mxGeometry x="80" y="160" width="120" height="60" as="geometry" />
        </mxCell>
        <mxCell id="sBuC2_Wg-XsfhJQgAVqZ-7" value="Comment" style="rounded=0;whiteSpace=wrap;html=1;" vertex="1" parent="1">
          <mxGeometry x="250" y="290" width="120" height="60" as="geometry" />
        </mxCell>
        <mxCell id="sBuC2_Wg-XsfhJQgAVqZ-14" style="edgeStyle=orthogonalEdgeStyle;rounded=0;orthogonalLoop=1;jettySize=auto;html=1;entryX=0;entryY=0.5;entryDx=0;entryDy=0;" edge="1" parent="1" source="sBuC2_Wg-XsfhJQgAVqZ-9" target="sBuC2_Wg-XsfhJQgAVqZ-10">
          <mxGeometry relative="1" as="geometry" />
        </mxCell>
        <mxCell id="sBuC2_Wg-XsfhJQgAVqZ-9" value="Project" style="whiteSpace=wrap;html=1;" vertex="1" parent="1">
          <mxGeometry x="255" y="160" width="120" height="60" as="geometry" />
        </mxCell>
        <mxCell id="sBuC2_Wg-XsfhJQgAVqZ-16" style="edgeStyle=orthogonalEdgeStyle;rounded=0;orthogonalLoop=1;jettySize=auto;html=1;entryX=1;entryY=0.5;entryDx=0;entryDy=0;exitX=0.568;exitY=0.947;exitDx=0;exitDy=0;exitPerimeter=0;" edge="1" parent="1" source="sBuC2_Wg-XsfhJQgAVqZ-10" target="sBuC2_Wg-XsfhJQgAVqZ-7">
          <mxGeometry relative="1" as="geometry">
            <mxPoint x="500" y="240" as="sourcePoint" />
            <mxPoint x="430" y="385" as="targetPoint" />
            <Array as="points">
              <mxPoint x="497" y="217" />
              <mxPoint x="497" y="250" />
              <mxPoint x="400" y="250" />
              <mxPoint x="400" y="320" />
            </Array>
          </mxGeometry>
        </mxCell>
        <mxCell id="sBuC2_Wg-XsfhJQgAVqZ-10" value="&lt;div&gt;Task&lt;/div&gt;" style="whiteSpace=wrap;html=1;" vertex="1" parent="1">
          <mxGeometry x="430" y="160" width="120" height="60" as="geometry" />
        </mxCell>
        <mxCell id="sBuC2_Wg-XsfhJQgAVqZ-15" value="1:N" style="text;html=1;align=center;verticalAlign=middle;resizable=0;points=[];autosize=1;strokeColor=none;fillColor=none;" vertex="1" parent="1">
          <mxGeometry x="375" y="160" width="40" height="30" as="geometry" />
        </mxCell>
        <mxCell id="sBuC2_Wg-XsfhJQgAVqZ-17" value="&lt;div&gt;1:N&lt;/div&gt;" style="text;html=1;align=center;verticalAlign=middle;resizable=0;points=[];autosize=1;strokeColor=none;fillColor=none;" vertex="1" parent="1">
          <mxGeometry x="415" y="248" width="40" height="30" as="geometry" />
        </mxCell>
        <mxCell id="sBuC2_Wg-XsfhJQgAVqZ-19" value="1:N" style="text;html=1;align=center;verticalAlign=middle;resizable=0;points=[];autosize=1;strokeColor=none;fillColor=none;" vertex="1" parent="1">
          <mxGeometry x="180" y="270" width="40" height="30" as="geometry" />
        </mxCell>
        <mxCell id="sBuC2_Wg-XsfhJQgAVqZ-20" value="&lt;div&gt;1:N&lt;/div&gt;&lt;div&gt;ó&lt;/div&gt;&lt;div&gt;N:M&lt;/div&gt;" style="text;html=1;align=center;verticalAlign=middle;resizable=0;points=[];autosize=1;strokeColor=none;fillColor=none;" vertex="1" parent="1">
          <mxGeometry x="200" y="130" width="50" height="60" as="geometry" />
        </mxCell>
        <mxCell id="sBuC2_Wg-XsfhJQgAVqZ-22" value="Ecommerce" style="text;html=1;align=center;verticalAlign=middle;resizable=0;points=[];autosize=1;strokeColor=none;fillColor=none;" vertex="1" parent="1">
          <mxGeometry x="60" y="398" width="90" height="30" as="geometry" />
        </mxCell>
        <mxCell id="sBuC2_Wg-XsfhJQgAVqZ-34" style="edgeStyle=orthogonalEdgeStyle;rounded=0;orthogonalLoop=1;jettySize=auto;html=1;entryX=0;entryY=0.5;entryDx=0;entryDy=0;" edge="1" parent="1" source="sBuC2_Wg-XsfhJQgAVqZ-23" target="sBuC2_Wg-XsfhJQgAVqZ-26">
          <mxGeometry relative="1" as="geometry" />
        </mxCell>
        <mxCell id="sBuC2_Wg-XsfhJQgAVqZ-23" value="Usuario" style="rounded=0;whiteSpace=wrap;html=1;" vertex="1" parent="1">
          <mxGeometry x="110" y="560" width="120" height="60" as="geometry" />
        </mxCell>
        <mxCell id="sBuC2_Wg-XsfhJQgAVqZ-26" value="Compra" style="whiteSpace=wrap;html=1;" vertex="1" parent="1">
          <mxGeometry x="330" y="560" width="120" height="60" as="geometry" />
        </mxCell>
        <mxCell id="sBuC2_Wg-XsfhJQgAVqZ-29" style="edgeStyle=orthogonalEdgeStyle;rounded=0;orthogonalLoop=1;jettySize=auto;html=1;entryX=0;entryY=0.5;entryDx=0;entryDy=0;" edge="1" parent="1" source="sBuC2_Wg-XsfhJQgAVqZ-27" target="sBuC2_Wg-XsfhJQgAVqZ-28">
          <mxGeometry relative="1" as="geometry" />
        </mxCell>
        <mxCell id="sBuC2_Wg-XsfhJQgAVqZ-27" value="Categoría" style="whiteSpace=wrap;html=1;" vertex="1" parent="1">
          <mxGeometry x="110" y="440" width="120" height="60" as="geometry" />
        </mxCell>
        <mxCell id="sBuC2_Wg-XsfhJQgAVqZ-31" style="edgeStyle=orthogonalEdgeStyle;rounded=0;orthogonalLoop=1;jettySize=auto;html=1;entryX=0.5;entryY=0;entryDx=0;entryDy=0;startArrow=classic;startFill=1;" edge="1" parent="1" source="sBuC2_Wg-XsfhJQgAVqZ-28" target="sBuC2_Wg-XsfhJQgAVqZ-26">
          <mxGeometry relative="1" as="geometry" />
        </mxCell>
        <mxCell id="sBuC2_Wg-XsfhJQgAVqZ-28" value="Producto" style="whiteSpace=wrap;html=1;" vertex="1" parent="1">
          <mxGeometry x="330" y="440" width="120" height="60" as="geometry" />
        </mxCell>
        <mxCell id="sBuC2_Wg-XsfhJQgAVqZ-30" value="1:N" style="text;html=1;align=center;verticalAlign=middle;resizable=0;points=[];autosize=1;strokeColor=none;fillColor=none;" vertex="1" parent="1">
          <mxGeometry x="255" y="440" width="40" height="30" as="geometry" />
        </mxCell>
        <mxCell id="sBuC2_Wg-XsfhJQgAVqZ-32" value="N:M" style="text;html=1;align=center;verticalAlign=middle;resizable=0;points=[];autosize=1;strokeColor=none;fillColor=none;" vertex="1" parent="1">
          <mxGeometry x="380" y="510" width="50" height="30" as="geometry" />
        </mxCell>
        <mxCell id="sBuC2_Wg-XsfhJQgAVqZ-35" value="&lt;div&gt;1:N&lt;/div&gt;" style="text;html=1;align=center;verticalAlign=middle;resizable=0;points=[];autosize=1;strokeColor=none;fillColor=none;" vertex="1" parent="1">
          <mxGeometry x="255" y="560" width="40" height="30" as="geometry" />
        </mxCell>
        <mxCell id="sBuC2_Wg-XsfhJQgAVqZ-36" value="Cartelera de cine" style="text;html=1;align=center;verticalAlign=middle;whiteSpace=wrap;rounded=0;" vertex="1" parent="1">
          <mxGeometry x="50" y="670" width="60" height="30" as="geometry" />
        </mxCell>
        <mxCell id="sBuC2_Wg-XsfhJQgAVqZ-44" style="edgeStyle=orthogonalEdgeStyle;rounded=0;orthogonalLoop=1;jettySize=auto;html=1;entryX=0.5;entryY=0;entryDx=0;entryDy=0;" edge="1" parent="1" source="sBuC2_Wg-XsfhJQgAVqZ-37" target="sBuC2_Wg-XsfhJQgAVqZ-38">
          <mxGeometry relative="1" as="geometry" />
        </mxCell>
        <mxCell id="sBuC2_Wg-XsfhJQgAVqZ-37" value="Película" style="rounded=0;whiteSpace=wrap;html=1;" vertex="1" parent="1">
          <mxGeometry x="90" y="710" width="120" height="60" as="geometry" />
        </mxCell>
        <mxCell id="sBuC2_Wg-XsfhJQgAVqZ-48" style="edgeStyle=orthogonalEdgeStyle;rounded=0;orthogonalLoop=1;jettySize=auto;html=1;entryX=0.5;entryY=0;entryDx=0;entryDy=0;" edge="1" parent="1" source="sBuC2_Wg-XsfhJQgAVqZ-38" target="sBuC2_Wg-XsfhJQgAVqZ-42">
          <mxGeometry relative="1" as="geometry" />
        </mxCell>
        <mxCell id="sBuC2_Wg-XsfhJQgAVqZ-38" value="Proyección" style="whiteSpace=wrap;html=1;" vertex="1" parent="1">
          <mxGeometry x="90" y="820" width="120" height="60" as="geometry" />
        </mxCell>
        <mxCell id="sBuC2_Wg-XsfhJQgAVqZ-46" style="edgeStyle=orthogonalEdgeStyle;rounded=0;orthogonalLoop=1;jettySize=auto;html=1;entryX=1;entryY=0.5;entryDx=0;entryDy=0;" edge="1" parent="1" source="sBuC2_Wg-XsfhJQgAVqZ-39" target="sBuC2_Wg-XsfhJQgAVqZ-38">
          <mxGeometry relative="1" as="geometry" />
        </mxCell>
        <mxCell id="sBuC2_Wg-XsfhJQgAVqZ-39" value="Sala" style="whiteSpace=wrap;html=1;" vertex="1" parent="1">
          <mxGeometry x="294" y="820" width="120" height="60" as="geometry" />
        </mxCell>
        <mxCell id="sBuC2_Wg-XsfhJQgAVqZ-52" style="edgeStyle=orthogonalEdgeStyle;rounded=0;orthogonalLoop=1;jettySize=auto;html=1;startArrow=classic;startFill=1;" edge="1" parent="1" source="sBuC2_Wg-XsfhJQgAVqZ-41">
          <mxGeometry relative="1" as="geometry">
            <mxPoint x="210" y="740" as="targetPoint" />
          </mxGeometry>
        </mxCell>
        <mxCell id="sBuC2_Wg-XsfhJQgAVqZ-41" value="Actor (opcional)" style="whiteSpace=wrap;html=1;fillColor=#fff2cc;strokeColor=#d6b656;" vertex="1" parent="1">
          <mxGeometry x="295" y="710" width="120" height="60" as="geometry" />
        </mxCell>
        <mxCell id="sBuC2_Wg-XsfhJQgAVqZ-42" value="Reserva" style="whiteSpace=wrap;html=1;" vertex="1" parent="1">
          <mxGeometry x="90" y="930" width="120" height="60" as="geometry" />
        </mxCell>
        <mxCell id="sBuC2_Wg-XsfhJQgAVqZ-50" style="edgeStyle=orthogonalEdgeStyle;rounded=0;orthogonalLoop=1;jettySize=auto;html=1;entryX=1;entryY=0.5;entryDx=0;entryDy=0;" edge="1" parent="1" source="sBuC2_Wg-XsfhJQgAVqZ-43" target="sBuC2_Wg-XsfhJQgAVqZ-42">
          <mxGeometry relative="1" as="geometry" />
        </mxCell>
        <mxCell id="sBuC2_Wg-XsfhJQgAVqZ-43" value="Usuario (opcional)" style="whiteSpace=wrap;html=1;fillColor=#fff2cc;strokeColor=#d6b656;" vertex="1" parent="1">
          <mxGeometry x="295" y="930" width="120" height="60" as="geometry" />
        </mxCell>
        <mxCell id="sBuC2_Wg-XsfhJQgAVqZ-45" value="1:N" style="text;html=1;align=center;verticalAlign=middle;resizable=0;points=[];autosize=1;strokeColor=none;fillColor=none;" vertex="1" parent="1">
          <mxGeometry x="150" y="778" width="40" height="30" as="geometry" />
        </mxCell>
        <mxCell id="sBuC2_Wg-XsfhJQgAVqZ-47" value="1:N" style="text;html=1;align=center;verticalAlign=middle;resizable=0;points=[];autosize=1;strokeColor=none;fillColor=none;" vertex="1" parent="1">
          <mxGeometry x="235" y="820" width="40" height="30" as="geometry" />
        </mxCell>
        <mxCell id="sBuC2_Wg-XsfhJQgAVqZ-49" value="1:N" style="text;html=1;align=center;verticalAlign=middle;resizable=0;points=[];autosize=1;strokeColor=none;fillColor=none;" vertex="1" parent="1">
          <mxGeometry x="150" y="888" width="40" height="30" as="geometry" />
        </mxCell>
        <mxCell id="sBuC2_Wg-XsfhJQgAVqZ-51" value="1:N" style="text;html=1;align=center;verticalAlign=middle;resizable=0;points=[];autosize=1;strokeColor=none;fillColor=none;" vertex="1" parent="1">
          <mxGeometry x="235" y="930" width="40" height="30" as="geometry" />
        </mxCell>
        <mxCell id="sBuC2_Wg-XsfhJQgAVqZ-53" value="N:M" style="text;html=1;align=center;verticalAlign=middle;resizable=0;points=[];autosize=1;strokeColor=none;fillColor=none;" vertex="1" parent="1">
          <mxGeometry x="230" y="710" width="50" height="30" as="geometry" />
        </mxCell>
        <mxCell id="sBuC2_Wg-XsfhJQgAVqZ-63" value="&lt;div&gt;Restaurante&lt;/div&gt;" style="text;html=1;align=center;verticalAlign=middle;resizable=0;points=[];autosize=1;strokeColor=none;fillColor=none;" vertex="1" parent="1">
          <mxGeometry x="655" y="138" width="90" height="30" as="geometry" />
        </mxCell>
        <mxCell id="sBuC2_Wg-XsfhJQgAVqZ-72" style="edgeStyle=orthogonalEdgeStyle;rounded=0;orthogonalLoop=1;jettySize=auto;html=1;entryX=0.5;entryY=0;entryDx=0;entryDy=0;" edge="1" parent="1" source="sBuC2_Wg-XsfhJQgAVqZ-64" target="sBuC2_Wg-XsfhJQgAVqZ-66">
          <mxGeometry relative="1" as="geometry" />
        </mxCell>
        <mxCell id="sBuC2_Wg-XsfhJQgAVqZ-74" style="edgeStyle=orthogonalEdgeStyle;rounded=0;orthogonalLoop=1;jettySize=auto;html=1;entryX=0.5;entryY=0;entryDx=0;entryDy=0;" edge="1" parent="1" source="sBuC2_Wg-XsfhJQgAVqZ-64" target="sBuC2_Wg-XsfhJQgAVqZ-71">
          <mxGeometry relative="1" as="geometry" />
        </mxCell>
        <mxCell id="sBuC2_Wg-XsfhJQgAVqZ-76" style="edgeStyle=orthogonalEdgeStyle;rounded=0;orthogonalLoop=1;jettySize=auto;html=1;" edge="1" parent="1" source="sBuC2_Wg-XsfhJQgAVqZ-64" target="sBuC2_Wg-XsfhJQgAVqZ-68">
          <mxGeometry relative="1" as="geometry" />
        </mxCell>
        <mxCell id="sBuC2_Wg-XsfhJQgAVqZ-64" value="Restaurante" style="whiteSpace=wrap;html=1;" vertex="1" parent="1">
          <mxGeometry x="827" y="160" width="120" height="60" as="geometry" />
        </mxCell>
        <mxCell id="sBuC2_Wg-XsfhJQgAVqZ-81" style="edgeStyle=orthogonalEdgeStyle;rounded=0;orthogonalLoop=1;jettySize=auto;html=1;entryX=0;entryY=0.5;entryDx=0;entryDy=0;startArrow=classic;startFill=1;" edge="1" parent="1" source="sBuC2_Wg-XsfhJQgAVqZ-66" target="sBuC2_Wg-XsfhJQgAVqZ-69">
          <mxGeometry relative="1" as="geometry">
            <mxPoint x="740" y="420" as="targetPoint" />
            <Array as="points">
              <mxPoint x="740" y="390" />
            </Array>
          </mxGeometry>
        </mxCell>
        <mxCell id="sBuC2_Wg-XsfhJQgAVqZ-66" value="Plato" style="rounded=0;whiteSpace=wrap;html=1;" vertex="1" parent="1">
          <mxGeometry x="680" y="270" width="120" height="60" as="geometry" />
        </mxCell>
        <mxCell id="sBuC2_Wg-XsfhJQgAVqZ-68" value="Mesa" style="whiteSpace=wrap;html=1;" vertex="1" parent="1">
          <mxGeometry x="827" y="270" width="120" height="60" as="geometry" />
        </mxCell>
        <mxCell id="sBuC2_Wg-XsfhJQgAVqZ-69" value="Menu" style="whiteSpace=wrap;html=1;" vertex="1" parent="1">
          <mxGeometry x="827" y="360" width="120" height="60" as="geometry" />
        </mxCell>
        <mxCell id="sBuC2_Wg-XsfhJQgAVqZ-87" style="edgeStyle=orthogonalEdgeStyle;rounded=0;orthogonalLoop=1;jettySize=auto;html=1;entryX=1;entryY=0.5;entryDx=0;entryDy=0;startArrow=classic;startFill=1;" edge="1" parent="1" source="sBuC2_Wg-XsfhJQgAVqZ-71" target="sBuC2_Wg-XsfhJQgAVqZ-69">
          <mxGeometry relative="1" as="geometry">
            <Array as="points">
              <mxPoint x="1040" y="390" />
            </Array>
          </mxGeometry>
        </mxCell>
        <mxCell id="sBuC2_Wg-XsfhJQgAVqZ-71" value="Bebida (opcional)" style="whiteSpace=wrap;html=1;fillColor=#fff2cc;strokeColor=#d6b656;" vertex="1" parent="1">
          <mxGeometry x="980" y="270" width="120" height="60" as="geometry" />
        </mxCell>
        <mxCell id="sBuC2_Wg-XsfhJQgAVqZ-73" value="1:N" style="text;html=1;align=center;verticalAlign=middle;resizable=0;points=[];autosize=1;strokeColor=none;fillColor=none;" vertex="1" parent="1">
          <mxGeometry x="750" y="188" width="40" height="30" as="geometry" />
        </mxCell>
        <mxCell id="sBuC2_Wg-XsfhJQgAVqZ-75" value="1:N" style="text;html=1;align=center;verticalAlign=middle;resizable=0;points=[];autosize=1;strokeColor=none;fillColor=none;" vertex="1" parent="1">
          <mxGeometry x="980" y="188" width="40" height="30" as="geometry" />
        </mxCell>
        <mxCell id="sBuC2_Wg-XsfhJQgAVqZ-77" value="1:N" style="text;html=1;align=center;verticalAlign=middle;resizable=0;points=[];autosize=1;strokeColor=none;fillColor=none;" vertex="1" parent="1">
          <mxGeometry x="890" y="228" width="40" height="30" as="geometry" />
        </mxCell>
        <mxCell id="sBuC2_Wg-XsfhJQgAVqZ-83" value="N:M" style="text;html=1;align=center;verticalAlign=middle;resizable=0;points=[];autosize=1;strokeColor=none;fillColor=none;" vertex="1" parent="1">
          <mxGeometry x="750" y="360" width="50" height="30" as="geometry" />
        </mxCell>
        <mxCell id="sBuC2_Wg-XsfhJQgAVqZ-89" value="N:M" style="text;html=1;align=center;verticalAlign=middle;resizable=0;points=[];autosize=1;strokeColor=none;fillColor=none;" vertex="1" parent="1">
          <mxGeometry x="965" y="358" width="50" height="30" as="geometry" />
        </mxCell>
        <mxCell id="sBuC2_Wg-XsfhJQgAVqZ-90" value="&lt;div&gt;Biblioteca&lt;/div&gt;" style="text;html=1;align=center;verticalAlign=middle;resizable=0;points=[];autosize=1;strokeColor=none;fillColor=none;" vertex="1" parent="1">
          <mxGeometry x="620" y="478" width="80" height="30" as="geometry" />
        </mxCell>
        <mxCell id="sBuC2_Wg-XsfhJQgAVqZ-99" style="edgeStyle=orthogonalEdgeStyle;rounded=0;orthogonalLoop=1;jettySize=auto;html=1;entryX=0.5;entryY=0;entryDx=0;entryDy=0;" edge="1" parent="1" source="sBuC2_Wg-XsfhJQgAVqZ-91" target="sBuC2_Wg-XsfhJQgAVqZ-96">
          <mxGeometry relative="1" as="geometry" />
        </mxCell>
        <mxCell id="sBuC2_Wg-XsfhJQgAVqZ-91" value="Libro" style="whiteSpace=wrap;html=1;" vertex="1" parent="1">
          <mxGeometry x="820" y="530" width="120" height="60" as="geometry" />
        </mxCell>
        <mxCell id="sBuC2_Wg-XsfhJQgAVqZ-110" style="edgeStyle=orthogonalEdgeStyle;rounded=0;orthogonalLoop=1;jettySize=auto;html=1;entryX=1;entryY=0.5;entryDx=0;entryDy=0;" edge="1" parent="1" source="sBuC2_Wg-XsfhJQgAVqZ-93" target="sBuC2_Wg-XsfhJQgAVqZ-91">
          <mxGeometry relative="1" as="geometry" />
        </mxCell>
        <mxCell id="sBuC2_Wg-XsfhJQgAVqZ-93" value="&lt;div&gt;Autor&lt;/div&gt;" style="whiteSpace=wrap;html=1;" vertex="1" parent="1">
          <mxGeometry x="990" y="530" width="120" height="60" as="geometry" />
        </mxCell>
        <mxCell id="sBuC2_Wg-XsfhJQgAVqZ-97" style="edgeStyle=orthogonalEdgeStyle;rounded=0;orthogonalLoop=1;jettySize=auto;html=1;entryX=0;entryY=0.5;entryDx=0;entryDy=0;" edge="1" parent="1" source="sBuC2_Wg-XsfhJQgAVqZ-94" target="sBuC2_Wg-XsfhJQgAVqZ-91">
          <mxGeometry relative="1" as="geometry" />
        </mxCell>
        <mxCell id="sBuC2_Wg-XsfhJQgAVqZ-94" value="Categoría" style="whiteSpace=wrap;html=1;" vertex="1" parent="1">
          <mxGeometry x="640" y="530" width="120" height="60" as="geometry" />
        </mxCell>
        <mxCell id="sBuC2_Wg-XsfhJQgAVqZ-101" style="edgeStyle=orthogonalEdgeStyle;rounded=0;orthogonalLoop=1;jettySize=auto;html=1;entryX=0;entryY=0.5;entryDx=0;entryDy=0;" edge="1" parent="1" source="sBuC2_Wg-XsfhJQgAVqZ-95" target="sBuC2_Wg-XsfhJQgAVqZ-96">
          <mxGeometry relative="1" as="geometry" />
        </mxCell>
        <mxCell id="sBuC2_Wg-XsfhJQgAVqZ-95" value="Socio" style="whiteSpace=wrap;html=1;" vertex="1" parent="1">
          <mxGeometry x="640" y="650" width="120" height="60" as="geometry" />
        </mxCell>
        <mxCell id="sBuC2_Wg-XsfhJQgAVqZ-96" value="Préstamo" style="whiteSpace=wrap;html=1;" vertex="1" parent="1">
          <mxGeometry x="820" y="650" width="120" height="60" as="geometry" />
        </mxCell>
        <mxCell id="sBuC2_Wg-XsfhJQgAVqZ-98" value="1:N" style="text;html=1;align=center;verticalAlign=middle;resizable=0;points=[];autosize=1;strokeColor=none;fillColor=none;" vertex="1" parent="1">
          <mxGeometry x="770" y="530" width="40" height="30" as="geometry" />
        </mxCell>
        <mxCell id="sBuC2_Wg-XsfhJQgAVqZ-100" value="1:N" style="text;html=1;align=center;verticalAlign=middle;resizable=0;points=[];autosize=1;strokeColor=none;fillColor=none;" vertex="1" parent="1">
          <mxGeometry x="880" y="600" width="40" height="30" as="geometry" />
        </mxCell>
        <mxCell id="sBuC2_Wg-XsfhJQgAVqZ-102" value="1:N" style="text;html=1;align=center;verticalAlign=middle;resizable=0;points=[];autosize=1;strokeColor=none;fillColor=none;" vertex="1" parent="1">
          <mxGeometry x="770" y="650" width="40" height="30" as="geometry" />
        </mxCell>
        <mxCell id="sBuC2_Wg-XsfhJQgAVqZ-104" value="1:N" style="text;html=1;align=center;verticalAlign=middle;resizable=0;points=[];autosize=1;strokeColor=none;fillColor=none;" vertex="1" parent="1">
          <mxGeometry x="940" y="530" width="40" height="30" as="geometry" />
        </mxCell>
      </root>
    </mxGraphModel>
  </diagram>
</mxfile>
